<svg width="46" height="70" viewBox="0 0 46 70" fill="none" xmlns="http://www.w3.org/2000/svg">
<path d="M19.3284 66.3442H19.324" stroke="#456062" stroke-width="1.06704" stroke-linecap="round" stroke-linejoin="round"/>
<path d="M24.3276 69.0928L24.3231 69.0884" stroke="#456062" stroke-width="1.06704" stroke-linecap="round" stroke-linejoin="round"/>
<path d="M35.2284 64.4571L35.224 64.4526" stroke="#456062" stroke-width="1.06704" stroke-linecap="round" stroke-linejoin="round"/>
<path d="M31.4294 68.5298L31.4249 68.5254" stroke="#456062" stroke-width="1.57125" stroke-linecap="round" stroke-linejoin="round"/>
<path d="M13.575 66.9268H13.5706" stroke="#456062" stroke-width="1.95429" stroke-linecap="round" stroke-linejoin="round"/>
<path d="M46 36.8386C46 50.4209 35.7009 61.4314 23.002 61.4314C10.303 61.4314 0 50.4209 0 36.8386C0 30.9758 1.73541 26.5708 4.64729 22.2987C9.79098 14.7474 35.7517 14.7474 41.0439 22.4903C43.9519 26.7467 46 31.0774 46 36.8386Z" fill="#456062"/>
<path d="M22.7713 29.3225C32.455 29.3225 40.3051 26.5699 40.3051 23.1743C40.3051 19.7788 32.455 17.0261 22.7713 17.0261C13.0876 17.0261 5.23743 19.7788 5.23743 23.1743C5.23743 26.5699 13.0876 29.3225 22.7713 29.3225Z" fill="white"/>
<path d="M23.1387 26.0744C30.0075 26.0744 35.5758 24.6464 35.5758 22.885C35.5758 21.1235 30.0075 19.6956 23.1387 19.6956C16.2699 19.6956 10.7017 21.1235 10.7017 22.885C10.7017 24.6464 16.2699 26.0744 23.1387 26.0744Z" fill="#456062"/>
<path d="M42.8848 1.08298C42.8144 0.434161 42.3571 -0.0505063 41.8686 0.00421377L32.6482 1.02826C31.9838 0.950086 31.3858 1.21588 31.3076 1.64582L27.231 24.6439H29.6738L33.6176 3.31086L42.1265 2.3689C42.6112 2.30245 42.9551 1.7279 42.8848 1.08298Z" fill="#456062"/>
<path d="M42.3572 2.45082C42.735 2.45082 43.0412 1.94159 43.0412 1.31342C43.0412 0.685256 42.735 0.176025 42.3572 0.176025C41.9795 0.176025 41.6732 0.685256 41.6732 1.31342C41.6732 1.94159 41.9795 2.45082 42.3572 2.45082Z" fill="white"/>
</svg>
