<svg width="184" height="44" viewBox="0 0 184 44" fill="none" xmlns="http://www.w3.org/2000/svg">
<path d="M25.0101 4.68662C25.0101 6.1604 24.5141 7.41311 23.5219 8.44476L22.0337 20.0729C21.3447 25.2016 19.7876 28.724 17.3624 30.6399C14.9647 32.5263 11.9745 33.4695 8.39183 33.4695C6.76582 33.4695 5.31896 33.2042 4.05123 32.6737C2.7835 32.1431 1.79136 31.4062 1.07482 30.463C0.358272 29.5198 0 28.4587 0 27.2797C0 25.8648 0.45473 24.73 1.36419 23.8752C2.27365 22.991 3.34846 22.5488 4.58863 22.5488C5.80125 22.5488 6.93118 22.991 7.97844 23.8752C9.02569 24.7595 9.82491 26.1006 10.3761 27.8986C10.9824 27.4565 11.4647 26.7196 11.823 25.688C12.1812 24.6563 12.5395 22.7846 12.8978 20.0729L14.0553 11.1418C11.4923 11.1123 9.43908 10.8618 7.89576 10.3901C6.35243 9.91854 5.2225 9.19638 4.50596 8.22369C3.81697 7.22152 3.47248 5.90986 3.47248 4.2887C3.47248 2.9623 3.67918 1.53273 4.09257 0C5.80125 0.972694 7.77174 1.8717 10.0041 2.69702C12.2364 3.49286 13.9864 3.93499 15.2541 4.02342C15.8604 2.78544 16.6045 1.85696 17.4864 1.23797C18.3959 0.589513 19.4018 0.265282 20.5042 0.265282C21.9648 0.265282 23.081 0.648464 23.8526 1.41483C24.6243 2.18119 25.0101 3.27179 25.0101 4.68662Z" fill="white"/>
<path d="M50.3707 5.79964C52.2172 5.79964 53.6503 6.58075 54.67 8.14295C55.7172 9.67568 56.2409 11.8127 56.2409 14.5539C56.2409 18.2973 54.0499 24.723 54.0499 24.723C52.5892 27.7295 50.5774 30.1023 48.0144 31.8413C45.4514 33.5509 42.5852 34.4057 39.4159 34.4057C36.7977 34.4057 34.4965 33.8309 32.5122 32.6814C30.5555 31.5318 29.0398 29.9254 27.9649 27.8621C26.8901 25.7988 26.3527 23.4408 26.3527 20.788C26.3527 16.9856 27.083 13.5959 28.5437 10.6189C30.0319 7.64187 31.9886 5.34277 34.4138 3.72161C36.8666 2.07098 39.4985 1.24567 42.3096 1.24567C44.1561 1.24567 45.4789 1.58463 46.2781 2.26257C47.0774 2.94051 47.477 4.01637 47.477 5.49015C47.477 5.81438 47.4494 6.24178 47.3943 6.77234C48.2486 6.12387 49.2408 5.79964 50.3707 5.79964ZM41.4001 29.7191C42.7505 29.7191 44.0596 29.3212 45.3273 28.5253C46.6226 27.7 47.725 26.5652 48.6345 25.1209C49.5439 23.6766 50.1365 21.1045 50.412 19.277C46.8293 17.5085 45.038 15.6298 45.038 11.7684C45.038 10.3831 45.41 9.14512 46.1541 8.05452C45.3825 7.93662 44.8313 7.87767 44.5006 7.87767C42.6816 7.87767 41.0832 8.46718 39.7052 9.64621C38.3273 10.7958 37.2524 12.358 36.4808 14.3328C35.7367 16.3077 35.3646 18.4594 35.3646 20.788C35.3646 23.6766 35.902 25.8873 36.9769 27.42C38.0517 28.9527 39.5261 29.7191 41.4001 29.7191Z" fill="white"/>
<path d="M82.3852 20.5227C83.4049 23.4113 84.4659 25.843 85.5683 27.8179C86.6707 29.7928 87.7455 31.1781 88.7928 31.974C88.1865 32.6224 87.2908 33.1825 86.1057 33.6541C84.9207 34.1552 83.8459 34.4057 82.8813 34.4057C80.9521 34.4057 79.4226 33.8751 78.2927 32.814C77.1903 31.7234 76.1981 29.837 75.3162 27.1547L73.9107 22.9102H73.7454C72.2296 22.9102 70.9067 22.7039 69.7768 22.2912C69.4737 24.2956 69.3221 25.843 69.3221 26.9336C69.3221 28.2895 69.4048 29.3801 69.5701 30.2054C69.763 31.0307 70.0937 31.7824 70.5622 32.4603C68.9914 33.7867 67.2827 34.4499 65.4362 34.4499C63.6724 34.4499 62.3909 33.9783 61.5917 33.0351C60.7924 32.0919 60.3928 30.5739 60.3928 28.4811C60.3928 27.1842 60.5582 25.2388 60.8889 22.6449C61.2472 20.0511 62.8955 15.5561 63.9428 9.15986L60.8062 4.42903C63.9204 2.27731 66.7591 1.20145 69.3221 1.20145C70.6174 1.20145 71.513 1.71727 72.0091 2.74892C73.828 1.77623 75.9363 1.28988 78.334 1.28988C80.2356 1.28988 81.8754 1.73201 83.2533 2.61628C84.6589 3.47107 85.7199 4.60588 86.4364 6.02071C87.1805 7.43554 87.5526 8.93879 87.5526 10.5305C87.5526 12.5053 87.1117 14.377 86.2298 16.1456C85.3754 17.9141 84.0939 19.3732 82.3852 20.5227ZM70.6036 17.2951C71.0445 17.3541 71.3615 17.3835 71.5544 17.3835C73.5111 17.3835 75.1233 16.8088 76.3911 15.6592C77.6863 14.5097 78.334 13.0064 78.334 11.1495C78.334 10.0589 77.9619 9.08617 77.2178 8.23138C76.5013 7.37659 75.4816 6.94919 74.1587 6.94919C73.6076 6.94919 73.0013 7.06709 72.3398 7.3029C72.202 8.30507 71.7473 10.9431 70.9756 15.2171L70.6036 17.2951Z" fill="white"/>
<path d="M124.099 5.3133C124.099 5.96176 123.934 7.28816 123.603 9.2925C123.3 11.2674 122.956 13.3454 122.57 15.5266C121.467 21.8344 120.916 25.622 120.916 26.8894C120.916 28.2453 120.999 29.3359 121.164 30.1612C121.357 30.9865 121.688 31.7382 122.156 32.4161C121.33 33.1235 120.489 33.6246 119.635 33.9194C118.808 34.2436 117.898 34.4057 116.906 34.4057C114.426 34.4057 112.469 33.7278 111.036 32.3719C109.603 31.016 108.377 28.599 107.357 25.1209C106.365 21.6133 105.318 16.293 104.215 9.15986H103.76C103.402 11.5474 103.044 13.6991 102.686 15.615C102.162 18.651 101.749 21.0975 101.445 22.9544C101.17 24.8114 101.032 26.1378 101.032 26.9336C101.032 28.2895 101.115 29.3801 101.28 30.2054C101.473 31.0307 101.804 31.7824 102.272 32.4603C100.701 33.7867 98.9926 34.4499 97.1462 34.4499C95.3824 34.4499 94.1009 33.9783 93.3016 33.0351C92.5024 32.0919 92.1028 30.5739 92.1028 28.4811C92.1028 27.1842 92.2682 25.2388 92.5989 22.6449C92.9571 20.0511 93.6599 15.5561 94.7072 9.15986L92.5162 4.42903C95.6304 2.27731 98.469 1.20145 101.032 1.20145C103.319 1.20145 105.083 1.73201 106.323 2.79313C107.564 3.85425 108.597 5.84386 109.424 8.76194C110.251 11.68 111.146 16.2782 112.111 22.5565H112.524C112.8 20.4637 113.489 15.9835 114.591 9.11564L112.814 4.38481C115.735 2.2331 118.436 1.15724 120.916 1.15724C123.038 1.15724 124.099 2.54259 124.099 5.3133Z" fill="white"/>
<path d="M144.243 27.2873C146.365 26.9631 148.404 26.3883 150.361 25.563C150.664 26.3294 150.816 27.2726 150.816 28.3927C150.816 30.3086 150.278 31.7971 149.204 32.8582C148.129 33.8899 146.599 34.4057 144.615 34.4057C142.272 34.4057 140.068 33.9783 138.001 33.1235C136.788 34.0078 135.341 34.4499 133.66 34.4499C131.896 34.4499 130.615 33.9783 129.816 33.0351C129.016 32.0919 128.617 30.5739 128.617 28.4811C128.617 27.1547 128.796 25.1651 129.154 22.5123C129.512 19.83 130.201 15.3792 131.221 9.15986L129.03 4.42903C132.144 2.27731 134.983 1.20145 137.546 1.20145C139.172 1.20145 140.178 2.02677 140.564 3.6774C142.438 3.5595 144.229 3.32369 145.938 2.96999C147.647 2.61628 149.741 2.10046 152.221 1.42252C152.442 2.51312 152.552 3.47107 152.552 4.29639C152.552 6.53653 151.849 8.30507 150.444 9.60199C149.038 10.8694 147.109 11.5032 144.656 11.5032C143.389 11.5032 141.845 11.2526 140.026 10.7515C139.751 12.4316 139.406 14.4655 138.993 16.853C139.82 17.0298 140.646 17.1183 141.473 17.1183L145.194 16.1014C145.332 16.6909 145.4 17.3983 145.4 18.2236C145.4 19.4911 145.001 20.4932 144.202 21.2301C143.402 21.9375 142.3 22.2912 140.895 22.2912C140.068 22.2912 139.144 22.1586 138.125 21.8933C137.739 24.5166 137.546 26.1967 137.546 26.9336V27.2873H144.243Z" fill="white"/>
<path d="M181.613 1.20145C184.149 1.20145 183.998 3.76583 183.998 6.59548C183.998 11.3116 183.272 15.5855 180.875 21.7165C178.477 27.8179 176.06 33.0498 171.733 37.4122C167.434 41.8041 162.556 44 157.099 44C154.509 44 152.552 43.4989 151.229 42.4967C149.879 41.524 149.204 40.124 149.204 38.2965C149.204 37.4417 149.41 36.5869 149.824 35.7321C150.21 34.9068 150.678 34.2731 151.229 33.8309C152.525 35.9826 154.605 37.0585 157.471 37.0585C158.519 37.0585 160.594 36.8374 161.807 36.3953C163.047 35.9532 165.233 34.3538 166.473 33.4695C164.351 33.0569 161.834 32.0252 160.815 30.3746C159.823 28.724 159.202 27.7737 158.954 25.6514C158.734 23.4997 158.61 20.6996 158.582 17.2509C158.555 14.6571 158.486 12.5938 158.376 11.061C158.265 9.49883 158.004 8.01031 157.59 6.59548C157.204 5.18066 155.639 4.04585 154.784 3.19105C156.355 1.86465 158.078 1.20145 159.952 1.20145C161.798 1.20145 163.176 1.82044 164.086 3.05841C165.023 4.26691 165.629 5.82912 165.905 7.74503C166.18 9.66095 166.318 12.0485 166.318 14.9076L166.424 18.2553C166.896 22 166.731 21.5319 166.978 23.4043C167.208 25.1585 168.869 26.2128 170.76 25.9533C172.651 25.6937 173.393 22.9894 174.07 20.5957C175.015 17.2509 176.694 12.2106 176.694 7.34711C176.694 5.7849 176.391 4.39955 175.785 3.19105C176.584 2.57207 177.507 2.08572 178.554 1.73201C179.629 1.37831 180.649 1.20145 181.613 1.20145Z" fill="white"/>
</svg>
