<svg width="194" height="22" viewBox="0 0 194 22" fill="none" xmlns="http://www.w3.org/2000/svg">
<g opacity="0.97">
<path opacity="0.97" d="M34.0739 20.9946H27.7483L5.57549 5.39444V20.9946H1V1.03629H7.23182L29.4939 16.6639V1.03629H34.0694L34.0739 20.9946Z" fill="black" stroke="black" stroke-width="1.02833" stroke-linecap="round" stroke-linejoin="round"/>
<path opacity="0.97" d="M61.0352 1.00479C62.3648 0.996469 63.6819 1.26283 64.9038 1.7872C67.2977 2.81066 69.2051 4.71729 70.2296 7.11078C70.7536 8.33419 71.0177 9.65311 71.0052 10.9839C71.0138 12.3205 70.7467 13.6445 70.2205 14.8731C69.7191 16.0626 68.9892 17.1422 68.0723 18.0508C67.1543 18.9569 66.077 19.6859 64.8946 20.2013C63.6755 20.7362 62.3573 21.0083 61.026 20.9997H46.5721C45.2318 21.0103 43.9039 20.7439 42.6715 20.2173C41.4887 19.7111 40.4151 18.9809 39.5098 18.0668C38.6049 17.1511 37.8808 16.0731 37.3753 14.8891C36.8576 13.6579 36.5909 12.3356 36.5909 11C36.5909 9.66428 36.8576 8.34205 37.3753 7.11078C38.3988 4.71474 40.3074 2.8061 42.7035 1.78263C43.9252 1.25782 45.2424 0.991428 46.5721 1.00021L61.0352 1.00479ZM66.4297 10.9839C66.4332 10.2661 66.2867 9.55545 65.9996 8.89751C65.4418 7.60139 64.4086 6.56821 63.1125 6.01038C62.4545 5.72329 61.7439 5.57679 61.026 5.58028H46.5721C45.8535 5.57674 45.1421 5.72323 44.4833 6.01038C43.1872 6.56821 42.154 7.60139 41.5962 8.89751C41.3098 9.5556 41.1641 10.2663 41.1684 10.9839C41.1651 11.7061 41.3058 12.4216 41.5825 13.0887C41.8456 13.7365 42.2343 14.3259 42.7264 14.8228C43.2209 15.317 43.8047 15.7129 44.4467 15.9895C45.1153 16.2787 45.8368 16.4252 46.5652 16.4196H61.0283C61.7462 16.4231 62.4568 16.2766 63.1147 15.9895C64.415 15.4308 65.4493 14.3916 66.0019 13.0887C66.2872 12.4238 66.4328 11.7074 66.4297 10.9839Z" fill="black" stroke="black" stroke-width="1.02833" stroke-linecap="round" stroke-linejoin="round"/>
<path opacity="0.97" d="M112.068 20.9951H107.492V5.20968L92.8141 20.9951L78.1359 5.20968V20.9951H73.5604V1.03683H80.3459L92.8118 14.7931L105.28 1.03683H112.065L112.068 20.9951Z" fill="black" stroke="black" stroke-width="1.02833" stroke-linecap="round" stroke-linejoin="round"/>
<path opacity="0.97" d="M158.127 20.9951H151.342L143.792 14.1159L136.243 20.9951L128.72 14.1159L121.171 20.9951H114.369L136.233 1.03683L158.127 20.9951ZM140.409 11.016L136.233 7.23891L132.088 11.016L136.233 14.8228L140.409 11.016Z" fill="black" stroke="black" stroke-width="1.02833" stroke-linecap="round" stroke-linejoin="round"/>
<path opacity="0.97" d="M183.459 1.03681C184.789 1.02849 186.106 1.29485 187.328 1.81922C189.724 2.84268 191.632 4.75133 192.656 7.14737C193.172 8.37177 193.438 9.68714 193.438 11.016C193.438 12.3448 193.172 13.6601 192.656 14.8845C191.631 17.2794 189.723 19.1874 187.328 20.2127C186.106 20.7371 184.789 21.0034 183.459 20.9951H160.227V1.03681H183.459ZM188.863 11.016C188.868 10.2973 188.721 9.58564 188.433 8.92724C187.875 7.63193 186.843 6.59901 185.548 6.04011C184.889 5.75322 184.178 5.60674 183.459 5.61001H164.789V16.4196H183.459C184.178 16.4229 184.889 16.2764 185.548 15.9895C186.843 15.4306 187.875 14.3977 188.433 13.1024C188.721 12.4448 188.868 11.7339 188.863 11.016Z" fill="black" stroke="black" stroke-width="1.02833" stroke-linecap="round" stroke-linejoin="round"/>
</g>
<path d="M139.437 10.697L136.006 7.26541L132.574 10.697L136.006 14.1286L139.437 10.697Z" fill="#D5FCFE"/>
</svg>
