<svg width="49" height="73" viewBox="0 0 49 73" fill="none" xmlns="http://www.w3.org/2000/svg">
<path d="M28.3115 66.9233C26.3584 66.7527 24.4263 66.3767 22.4697 66.2548C24.1443 50.432 24.5585 22.5043 25.0494 22.4556C25.5403 22.4068 25.8293 24.1719 26.2958 24.9483C26.4907 25.2755 28.8128 51.4729 28.3115 66.9233Z" stroke="#456062" stroke-width="0.696276" stroke-miterlimit="10"/>
<path d="M24.6421 24.353C24.6421 24.353 16.0988 27.4236 13.7002 29.227C11.3711 30.9677 6.16992 38.0975 6.16992 38.0975C6.16992 38.0975 14.7132 35.0235 17.1119 33.2236C19.4375 31.4794 24.6421 24.353 24.6421 24.353Z" fill="#456062" stroke="#456062" stroke-width="0.696276" stroke-linecap="round" stroke-linejoin="round"/>
<path d="M23.8239 23.4932C23.8239 23.4932 14.8663 22.0067 11.9002 22.4035C9.01762 22.79 1 26.4768 1 26.4768C1 26.4768 9.9576 27.9633 12.9237 27.5629C15.8063 27.1765 23.8239 23.4932 23.8239 23.4932Z" fill="#456062" stroke="#456062" stroke-width="0.696276" stroke-linecap="round" stroke-linejoin="round"/>
<path d="M24.3567 23.0859C24.3567 23.0859 20.3775 16.1545 18.4 14.3441C16.4818 12.5826 9.20569 9.12207 9.20569 9.12207C9.20569 9.12207 13.1849 16.0535 15.1589 17.8638C17.1328 19.6741 24.3567 23.0859 24.3567 23.0859Z" fill="#456062" stroke="#456062" stroke-width="0.696276" stroke-linecap="round" stroke-linejoin="round"/>
<path d="M25.2374 24.0189C25.2374 24.0189 27.7962 15.3154 27.7579 12.3145C27.7231 9.40406 25.0355 1 25.0355 1C25.0355 1 22.4767 9.70346 22.515 12.7044C22.5498 15.6148 25.2374 24.0189 25.2374 24.0189Z" fill="#456062" stroke="#456062" stroke-width="0.696276" stroke-linecap="round" stroke-linejoin="round"/>
<path d="M42.7487 36.7328C42.7487 36.7328 38.0767 30.247 35.9252 28.649C33.8364 27.0963 26.24 24.3948 26.24 24.3948C26.24 24.3948 30.7658 31.7057 32.9068 33.3071C34.9992 34.8598 42.7487 36.7328 42.7487 36.7328Z" fill="#456062" stroke="#456062" stroke-width="0.696276" stroke-linecap="round" stroke-linejoin="round"/>
<path d="M26.2992 24.2834C26.2992 24.2834 33.1192 18.292 34.6928 15.7436C36.2176 13.2683 38.4422 4.72852 38.4422 4.72852C38.4422 4.72852 31.6222 10.72 30.0521 13.2683C28.5238 15.7436 26.2992 24.2834 26.2992 24.2834Z" fill="#456062" stroke="#456062" stroke-width="0.696276" stroke-linecap="round" stroke-linejoin="round"/>
<path d="M26.1042 24.3948C26.1042 24.3948 35.1558 25.1538 38.0767 24.5202C40.921 23.904 48.6149 19.587 48.6149 19.587C48.6149 19.587 39.5633 18.8246 36.6424 19.4617C33.8016 20.0779 26.1042 24.3948 26.1042 24.3948Z" fill="#456062" stroke="#456062" stroke-width="0.696276" stroke-linecap="round" stroke-linejoin="round"/>
<path d="M23.8169 27.0685C24.9802 27.0685 25.9232 25.9088 25.9232 24.4783C25.9232 23.0478 24.9802 21.8882 23.8169 21.8882C22.6537 21.8882 21.7107 23.0478 21.7107 24.4783C21.7107 25.9088 22.6537 27.0685 23.8169 27.0685Z" fill="#456062" stroke="#456062" stroke-width="0.696276" stroke-linecap="round" stroke-linejoin="round"/>
<path d="M26.7134 29.6726C28.0401 29.6726 29.1156 28.3493 29.1156 26.7169C29.1156 25.0845 28.0401 23.7612 26.7134 23.7612C25.3867 23.7612 24.3113 25.0845 24.3113 26.7169C24.3113 28.3493 25.3867 29.6726 26.7134 29.6726Z" fill="#456062" stroke="#456062" stroke-width="0.696276" stroke-linecap="round" stroke-linejoin="round"/>
<path d="M34.383 68.9845C34.383 68.9845 28.0225 65.9766 23.3087 66.095C18.9361 66.2064 10.7096 68.9845 10.7096 68.9845" fill="white"/>
<path d="M34.383 68.9845C34.383 68.9845 28.0225 65.9766 23.3087 66.095C18.9361 66.2064 10.7096 68.9845 10.7096 68.9845" stroke="#456062" stroke-width="0.696276" stroke-linecap="round" stroke-linejoin="round"/>
<path d="M24.1512 39.2812L27.5038 42.9437" stroke="#456062" stroke-width="0.696276" stroke-linecap="round" stroke-linejoin="round"/>
<path d="M27.7927 47.6538L23.8448 49.6521" stroke="#456062" stroke-width="0.696276" stroke-linecap="round" stroke-linejoin="round"/>
<path d="M23.3018 56.8831L27.7928 55.8875" stroke="#456062" stroke-width="0.696276" stroke-linecap="round" stroke-linejoin="round"/>
<path d="M28.2905 63.8704L22.9292 61.5518" stroke="#456062" stroke-width="0.696276" stroke-linecap="round" stroke-linejoin="round"/>
<path d="M40.1482 69.3882C40.096 67.8042 38.5572 66.0322 36.9732 66.0844C36.3643 66.1044 35.7883 66.3653 35.3718 66.8099C34.9552 67.2545 34.7323 67.8463 34.7521 68.4552C34.7711 68.94 34.9807 69.3977 35.3353 69.7289C35.69 70.06 36.1609 70.2379 36.6459 70.2237C37.036 70.2101 37.4046 70.0423 37.6709 69.757C37.9373 69.4717 38.0795 69.0924 38.0663 68.7024C38.0614 68.5483 38.0261 68.3967 37.9625 68.2562C37.899 68.1158 37.8083 67.9892 37.6958 67.8838C37.5833 67.7784 37.4511 67.6962 37.3068 67.6419C37.1625 67.5876 37.0089 67.5623 36.8548 67.5675C36.731 67.571 36.6092 67.5991 36.4963 67.6499C36.3834 67.7007 36.2817 67.7733 36.1969 67.8636C36.1122 67.9538 36.0461 68.0599 36.0025 68.1758C35.9588 68.2917 35.9385 68.415 35.9427 68.5388C35.9499 68.7385 36.0361 68.9273 36.1823 69.0637C36.3285 69.2001 36.5227 69.2729 36.7225 69.2664C36.8016 69.2637 36.8794 69.2454 36.9515 69.2126C37.0235 69.1798 37.0884 69.1332 37.1424 69.0753C37.1964 69.0174 37.2384 68.9495 37.2662 68.8753C37.2939 68.8012 37.3067 68.7223 37.3039 68.6432" stroke="#456062" stroke-width="0.696276" stroke-linecap="round" stroke-linejoin="round"/>
<path d="M47.9604 71.8707C47.2641 71.8707 43.8106 68.1386 42.3066 68.1142C42.0203 68.1082 41.7356 68.1588 41.4689 68.2631C41.2021 68.3674 40.9586 68.5233 40.7522 68.7219C40.5459 68.9205 40.3808 69.1578 40.2664 69.4204C40.1519 69.6829 40.0905 69.9655 40.0855 70.2518C40.0804 70.4813 40.1208 70.7095 40.2042 70.9233C40.2877 71.1371 40.4126 71.3323 40.5718 71.4977C40.731 71.663 40.9213 71.7952 41.1318 71.8867C41.3423 71.9782 41.5688 72.0272 41.7983 72.0308C41.9818 72.0345 42.1642 72.0019 42.335 71.9349C42.5058 71.8678 42.6617 71.7677 42.7937 71.6403C42.9257 71.5128 43.0312 71.3605 43.1041 71.1921C43.1771 71.0237 43.216 70.8426 43.2188 70.6591C43.2234 70.3633 43.1106 70.0778 42.905 69.865C42.6994 69.6523 42.4179 69.5297 42.1221 69.5242C41.886 69.5205 41.658 69.6102 41.4878 69.7739C41.3176 69.9376 41.219 70.1619 41.2135 70.398C41.2092 70.4921 41.2241 70.586 41.2572 70.6741C41.2903 70.7622 41.3409 70.8428 41.406 70.9108C41.4711 70.9788 41.5493 71.0329 41.6359 71.0698C41.7224 71.1067 41.8156 71.1257 41.9098 71.1256C41.985 71.1275 42.0599 71.1144 42.1301 71.0872C42.2003 71.06 42.2644 71.0192 42.3188 70.9671C42.3732 70.915 42.4167 70.8527 42.4469 70.7837C42.477 70.7147 42.4933 70.6404 42.4946 70.5651" stroke="#456062" stroke-width="0.696276" stroke-linecap="round" stroke-linejoin="round"/>
<path d="M25.3732 24.266C25.5089 25.7421 26.5255 26.8875 27.7579 26.8875C28.2498 26.8834 28.7244 26.7059 29.0983 26.3862C28.966 24.9101 27.9494 23.7612 26.7135 23.7612C26.2212 23.7663 25.7465 23.9451 25.3732 24.266Z" fill="white" stroke="#456062" stroke-width="0.696276" stroke-linecap="round" stroke-linejoin="round"/>
<path d="M22.8213 22.3305C23.0511 23.455 23.8657 24.2871 24.8614 24.2871C25.1456 24.2862 25.4253 24.2156 25.676 24.0817C25.6482 22.8806 24.8509 21.9163 23.8692 21.9163C23.4808 21.9206 23.1077 22.0681 22.8213 22.3305Z" fill="white" stroke="#456062" stroke-width="0.696276" stroke-linecap="round" stroke-linejoin="round"/>
<path d="M20.7578 68.8916H20.7534" stroke="#456062" stroke-width="1.06704" stroke-linecap="round" stroke-linejoin="round"/>
<path d="M25.757 71.6402L25.7526 71.6357" stroke="#456062" stroke-width="1.06704" stroke-linecap="round" stroke-linejoin="round"/>
<path d="M36.6579 67.0044L36.6534 67" stroke="#456062" stroke-width="1.06704" stroke-linecap="round" stroke-linejoin="round"/>
<path d="M32.8588 71.0772L32.8544 71.0728" stroke="#456062" stroke-width="1.57125" stroke-linecap="round" stroke-linejoin="round"/>
<path d="M15.0044 69.4741H15" stroke="#456062" stroke-width="1.95429" stroke-linecap="round" stroke-linejoin="round"/>
</svg>
