<svg width="51" height="74" viewBox="0 0 51 74" fill="none" xmlns="http://www.w3.org/2000/svg">
<path d="M31.268 68.6277H31.2642" stroke="#456062" stroke-width="0.950544" stroke-linecap="round" stroke-linejoin="round"/>
<path d="M27.0898 71.4133H27.0859" stroke="#456062" stroke-width="1.74092" stroke-linecap="round" stroke-linejoin="round"/>
<path d="M38.2317 72.8059H38.2279" stroke="#456062" stroke-width="0.950544" stroke-linecap="round" stroke-linejoin="round"/>
<path d="M13.0127 69.9092H13.0089" stroke="#456062" stroke-width="1.39274" stroke-linecap="round" stroke-linejoin="round"/>
<path d="M42.1658 70.024C42.1658 68.4398 40.6582 66.6292 39.0704 66.6431C38.7686 66.6459 38.4704 66.708 38.1926 66.826C37.9148 66.9441 37.663 67.1156 37.4516 67.331C37.2401 67.5463 37.0732 67.8012 36.9602 68.081C36.8473 68.3609 36.7906 68.6603 36.7933 68.9621C36.7951 69.2033 36.8445 69.4419 36.9386 69.664C37.0327 69.8862 37.1698 70.0876 37.3418 70.2567C37.5139 70.4259 37.7176 70.5594 37.9413 70.6497C38.165 70.74 38.4044 70.7854 38.6456 70.7831C38.8389 70.7817 39.03 70.7422 39.208 70.6669C39.3859 70.5916 39.5473 70.4819 39.6828 70.3441C39.8183 70.2063 39.9253 70.0432 39.9977 69.864C40.0701 69.6848 40.1064 69.493 40.1045 69.2998C40.1032 69.1452 40.0714 68.9925 40.011 68.8502C39.9506 68.708 39.8627 68.579 39.7525 68.4707C39.6422 68.3624 39.5117 68.2768 39.3684 68.2189C39.2251 68.1611 39.0718 68.132 38.9172 68.1334C38.6676 68.1361 38.4292 68.2377 38.2543 68.4159C38.0794 68.594 37.9822 68.8343 37.9841 69.0839C37.985 69.1827 38.0054 69.2803 38.044 69.3712C38.0826 69.4621 38.1388 69.5445 38.2093 69.6137C38.2798 69.6829 38.3632 69.7375 38.4548 69.7745C38.5464 69.8114 38.6444 69.83 38.7431 69.829C38.8222 69.8286 38.9005 69.8125 38.9734 69.7818C39.0463 69.7512 39.1124 69.7064 39.1681 69.6501C39.2237 69.5939 39.2677 69.5272 39.2975 69.454C39.3273 69.3807 39.3425 69.3023 39.342 69.2232" stroke="#456062" stroke-width="0.696369" stroke-linecap="round" stroke-linejoin="round"/>
<path d="M50 72.4473C49.3036 72.4473 45.8497 68.7147 44.3455 68.6869C43.7671 68.6766 43.2082 68.8964 42.7917 69.2979C42.3752 69.6994 42.1351 70.2498 42.1241 70.8282C42.119 71.0577 42.1594 71.2859 42.2428 71.4998C42.3263 71.7136 42.4513 71.9088 42.6105 72.0742C42.7697 72.2396 42.96 72.3718 43.1706 72.4633C43.3811 72.5548 43.6076 72.6038 43.8372 72.6074C44.0206 72.6111 44.203 72.5785 44.3739 72.5115C44.5447 72.4444 44.7006 72.3443 44.8326 72.2168C44.9646 72.0893 45.0702 71.937 45.1431 71.7686C45.2161 71.6002 45.255 71.4191 45.2577 71.2356C45.2624 70.9394 45.1497 70.6534 44.9442 70.4401C44.7387 70.2268 44.4571 70.1034 44.161 70.097C43.9245 70.0942 43.6964 70.1847 43.5263 70.349C43.3562 70.5133 43.2577 70.738 43.2522 70.9744C43.248 71.0685 43.2628 71.1624 43.2959 71.2506C43.329 71.3387 43.3797 71.4192 43.4447 71.4872C43.5098 71.5553 43.588 71.6094 43.6746 71.6463C43.7612 71.6832 43.8544 71.7022 43.9486 71.7021C44.0238 71.704 44.0988 71.6909 44.169 71.6637C44.2392 71.6365 44.3033 71.5957 44.3577 71.5436C44.412 71.4915 44.4556 71.4291 44.4858 71.3601C44.5159 71.2911 44.5322 71.2169 44.5335 71.1416" stroke="#456062" stroke-width="0.696369" stroke-linecap="round" stroke-linejoin="round"/>
<path d="M17.2707 33.1026C15.2269 41.1387 16.2262 49.4672 16.9225 57.8237C17.2498 61.7686 17.6746 64.091 18.3571 65.3375C19.0395 66.584 21.1007 66.5283 21.1007 66.5283L32.5908 1.06958C32.5908 1.06958 22.4935 12.5597 17.2707 33.1026Z" fill="#456062" stroke="#456062" stroke-width="0.696369" stroke-linecap="round" stroke-linejoin="round"/>
<path d="M32.657 1L21.1182 66.6154C21.1182 66.6154 23.0854 67.3291 24.1091 66.4343C25.1327 65.5395 26.3723 63.4469 28.0296 59.8432C31.5393 52.2075 35.3415 44.7041 36.1493 36.4278C38.2454 15.2825 32.657 1 32.657 1Z" fill="#456062" stroke="#456062" stroke-width="0.696369" stroke-linecap="round" stroke-linejoin="round"/>
<path d="M26.3513 36.8315C27.0129 35.4387 29.0776 34.429 30.4808 35.0906C30.7482 35.2154 30.9882 35.3919 31.1873 35.6098C31.3863 35.8276 31.5404 36.0826 31.6407 36.3602C31.7409 36.6377 31.7854 36.9323 31.7716 37.2271C31.7578 37.5219 31.6859 37.811 31.5602 38.078C31.3578 38.5091 30.9925 38.8422 30.5446 39.0041C30.0967 39.1661 29.6029 39.1435 29.1716 38.9415C29.0003 38.8617 28.8464 38.749 28.7187 38.6098C28.591 38.4706 28.492 38.3075 28.4273 38.13C28.3626 37.9525 28.3336 37.764 28.3418 37.5752C28.35 37.3865 28.3954 37.2012 28.4752 37.0299C28.6058 36.7541 28.8402 36.5412 29.1272 36.4374C29.4142 36.3337 29.7305 36.3477 30.0073 36.4763C30.2282 36.5805 30.3988 36.768 30.4817 36.9977C30.5645 37.2275 30.553 37.4807 30.4495 37.7019C30.3658 37.8778 30.2158 38.0132 30.0323 38.0785C29.8489 38.1438 29.647 38.1336 29.471 38.0501C29.33 37.9843 29.2207 37.8653 29.1672 37.7191C29.1137 37.5729 29.1203 37.4115 29.1855 37.2702" stroke="white" stroke-width="0.696369" stroke-linecap="round" stroke-linejoin="round"/>
<path d="M28.3847 24.9653C28.5344 23.4228 27.267 21.5113 25.7211 21.3616C25.1302 21.3092 24.5425 21.4924 24.086 21.8713C23.6295 22.2502 23.3412 22.7941 23.2838 23.3845C23.2392 23.859 23.3846 24.3319 23.6881 24.6994C23.9916 25.0668 24.4284 25.299 24.9028 25.3448C25.0906 25.363 25.2801 25.3441 25.4605 25.289C25.6409 25.234 25.8086 25.1438 25.9542 25.0239C26.0997 24.9039 26.2201 24.7564 26.3086 24.5898C26.3971 24.4232 26.4518 24.2408 26.4697 24.053C26.4845 23.9018 26.4692 23.749 26.4246 23.6037C26.38 23.4584 26.307 23.3234 26.2099 23.2065C26.1127 23.0895 25.9933 22.9931 25.8586 22.9226C25.7239 22.8522 25.5766 22.8092 25.4251 22.7961C25.3049 22.7846 25.1835 22.7969 25.068 22.8323C24.9525 22.8677 24.8451 22.9256 24.7519 23.0025C24.6588 23.0795 24.5818 23.1741 24.5252 23.2808C24.4687 23.3876 24.4337 23.5045 24.4223 23.6248C24.4128 23.7209 24.4223 23.8179 24.4504 23.9103C24.4785 24.0027 24.5247 24.0886 24.5862 24.1631C24.6477 24.2375 24.7234 24.2991 24.8088 24.3441C24.8942 24.3892 24.9877 24.4169 25.0839 24.4256C25.1608 24.4333 25.2384 24.4256 25.3123 24.4031C25.3862 24.3806 25.455 24.3437 25.5145 24.2945C25.5741 24.2453 25.6233 24.1848 25.6594 24.1164C25.6954 24.0481 25.7176 23.9733 25.7246 23.8964" stroke="white" stroke-width="0.696369" stroke-linecap="round" stroke-linejoin="round"/>
<path d="M1 68.203C1 68.203 4.26249 69.345 10.6726 67.8861C14.4051 67.0366 18.9663 65.6229 22.8033 64.9753C32.065 63.4154 35.5886 68.203 35.5886 68.203" stroke="#456062" stroke-width="0.696369" stroke-linecap="round" stroke-linejoin="round"/>
</svg>
