<svg width="734" height="640" viewBox="0 0 734 640" fill="none" xmlns="http://www.w3.org/2000/svg" xmlns:xlink="http://www.w3.org/1999/xlink">
<rect width="734" height="640" fill="url(#pattern0)"/>
<defs>
<pattern id="pattern0" patternContentUnits="objectBoundingBox" width="1" height="1">
<use xlink:href="#image0" transform="translate(-0.00408719) scale(0.0013624 0.0015625)"/>
</pattern>
<image id="image0" width="740" height="640" xlink:href="img/home.png"/>
</defs>
<path d="M222 524L442.8 532L512 518.3V540L443.5 559.7L222 548.7V524Z" fill="#3595F6" fill-opacity="0.75"/>
<path d="M223 524V499L443.3 502.3L513 499V519L443.7 532L223 524Z" fill="#3595F6" fill-opacity="0.75"/>
<path d="M223 500V475H444H513V498L445 505L223 500Z" fill="#3595F6" fill-opacity="0.75"/>
<path d="M223 475V450L444.3 446.3L512 453V475H444" fill="#3595F6" fill-opacity="0.75"/>
<path d="M223 450V424L444.5 420.7L513 431.7V453L444 446.3L223 450Z" fill="#3595F6" fill-opacity="0.75"/>
<path d="M222 424V400.3L443 388L514 411V432.3L443 420L222 424Z" fill="#3595F6" fill-opacity="0.75"/>
<path d="M222 402V377L444.2 360.7L514 389.3V410L443.7 388.3L222 402Z" fill="#3595F6" fill-opacity="0.75"/>
<path d="M222 377V352L444.5 331.7L514 368.3V389L442 360.3L222 377Z" fill="#3595F6" fill-opacity="0.75"/>
<path d="M222 353V329L445 304.3L514 348.3V370L444.7 332L222 353Z" fill="#3595F6" fill-opacity="0.75"/>
<path d="M222 329V305L444.5 276.3L514 327.3V348L443.7 305.7L222 329Z" fill="#3595F6" fill-opacity="0.75"/>
<path d="M221 306V282L443.3 249L514 308.3V328L444 277.3L221 306Z" fill="#3595F6" fill-opacity="0.75"/>
<path d="M222 282V258L443.2 223L513 287V308L444.3 249.7L222 282Z" fill="#3595F6" fill-opacity="0.75"/>
<path d="M222 259V234L444.3 196L513 266.3V287L444 223L222 259Z" fill="#3595F6" fill-opacity="0.75"/>
<path d="M222 236V211L442.8 167.3L513 246.3V269L444 195.7L222 236Z" fill="#3595F6" fill-opacity="0.75"/>
<path d="M223 212V187L443 139L513 224V247L442.3 167.7L223 212Z" fill="#3595F6" fill-opacity="0.75"/>
<path d="M222 187V162L441.8 110L513 202.3V225L443.3 138.7L222 187Z" fill="#3595F6" fill-opacity="0.75"/>
<path d="M222 163V137L444 80.3L513 182V203L443.7 111.3L222 163Z" fill="#3595F6" fill-opacity="0.75"/>
</svg>
